<svg width="1284" height="407" viewBox="0 0 1284 407" fill="none" xmlns="http://www.w3.org/2000/svg">
<path d="M-0.000244141 212.829L170.708 42.1206L208.05 79.463L83.5756 207.494L197.381 321.299L275.622 243.058L273.844 202.159L232.945 200.381L183.155 250.171L145.813 212.829L243.614 115.027L364.533 235.945L193.825 406.653L-0.000244141 212.829Z" fill="#DDB71E"/>
<path d="M245.393 38.9807L279.808 3L315.789 37.4153L281.373 73.3961L245.393 38.9807Z" fill="#DDB71E"/>
<path d="M1163.97 257.829V110H1201.48V227.341H1269.27V257.829H1163.97Z" fill="#DDB71E"/>
<path d="M1002.23 257.829L1045.56 110H1106.53L1149.86 257.829H1110.14L1102.72 228.344H1049.37L1041.95 257.829H1002.23ZM1056.79 199.46H1095.3L1079.66 138.282H1072.43L1056.79 199.46Z" fill="#DDB71E"/>
<path d="M868.577 257.829V110H967.264L989.528 132.265V167.768L979.499 177.998L995.345 192.841V235.565L973.081 257.829H868.577ZM906.086 167.367H946.604L953.624 160.346V145.503L946.604 138.483H906.086V167.367ZM906.086 229.347H950.816L957.836 222.326V200.463L950.816 193.442H906.086V229.347Z" fill="#DDB71E"/>
<path d="M735.609 257.829L713.345 235.565V132.265L735.609 110H822.261L844.526 132.265V235.565L822.261 257.829H735.609ZM758.075 229.347H800.197L807.217 222.326V145.503L799.796 138.483H758.075L750.854 145.503V222.326L758.075 229.347Z" fill="#DDB71E"/>
<path d="M594.93 257.829V110H632.439V227.341H700.236V257.829H594.93Z" fill="#DDB71E"/>
<path d="M449.035 257.829L426.77 235.565V132.265L449.035 110H531.675L553.939 132.265V159.544L517.433 159.343V145.503L510.212 138.483H471.5L464.279 145.503V222.126L471.5 229.347H502.991L522.247 212.297V207.082H495.169V178.399H556.146V257.829H524.454V244.591L509.611 257.829H449.035Z" fill="#DDB71E"/>
<path d="M1258.82 335.566H1243.06C1242.45 332.198 1241.32 329.234 1239.67 326.675C1238.02 324.115 1236 321.943 1233.61 320.158C1231.22 318.373 1228.54 317.026 1225.58 316.117C1222.65 315.207 1219.53 314.753 1216.23 314.753C1210.27 314.753 1204.93 316.251 1200.22 319.249C1195.54 322.246 1191.83 326.641 1189.11 332.434C1186.41 338.226 1185.06 345.299 1185.06 353.651C1185.06 362.071 1186.41 369.177 1189.11 374.969C1191.83 380.762 1195.56 385.14 1200.27 388.104C1204.98 391.067 1210.29 392.549 1216.18 392.549C1219.45 392.549 1222.55 392.112 1225.48 391.236C1228.44 390.327 1231.12 388.996 1233.51 387.245C1235.9 385.494 1237.92 383.355 1239.57 380.829C1241.26 378.27 1242.42 375.34 1243.06 372.039L1258.82 372.09C1257.98 377.175 1256.34 381.857 1253.92 386.134C1251.53 390.377 1248.45 394.048 1244.67 397.146C1240.94 400.211 1236.66 402.585 1231.84 404.269C1227.03 405.953 1221.77 406.795 1216.08 406.795C1207.12 406.795 1199.14 404.673 1192.14 400.43C1185.13 396.153 1179.61 390.04 1175.57 382.092C1171.56 374.144 1169.56 364.664 1169.56 353.651C1169.56 342.605 1171.58 333.124 1175.62 325.21C1179.66 317.262 1185.18 311.166 1192.19 306.923C1199.19 302.645 1207.16 300.507 1216.08 300.507C1221.57 300.507 1226.69 301.298 1231.44 302.881C1236.22 304.43 1240.52 306.72 1244.32 309.752C1248.13 312.749 1251.28 316.42 1253.77 320.764C1256.26 325.075 1257.94 330.009 1258.82 335.566Z" fill="#DDB71E"/>
<path d="M1076.93 405.38V301.921H1113.81C1121.83 301.921 1128.48 303.302 1133.77 306.063C1139.09 308.825 1143.06 312.647 1145.69 317.531C1148.31 322.38 1149.63 327.988 1149.63 334.353C1149.63 340.684 1148.3 346.258 1145.64 351.074C1143.01 355.857 1139.04 359.578 1133.71 362.239C1128.43 364.899 1121.78 366.229 1113.76 366.229H1085.82V352.792H1112.35C1117.4 352.792 1121.51 352.068 1124.67 350.62C1127.87 349.171 1130.21 347.067 1131.69 344.305C1133.18 341.543 1133.92 338.226 1133.92 334.353C1133.92 330.446 1133.16 327.062 1131.64 324.199C1130.16 321.336 1127.82 319.147 1124.62 317.632C1121.46 316.083 1117.3 315.308 1112.14 315.308H1092.54V405.38H1076.93ZM1128.01 358.702L1153.57 405.38H1135.79L1110.73 358.702H1128.01Z" fill="#DDB71E"/>
<path d="M981.797 405.38H965.228L1002.46 301.921H1020.49L1057.72 405.38H1041.16L1011.91 320.713H1011.1L981.797 405.38ZM984.576 364.865H1038.33V378H984.576V364.865Z" fill="#DDB71E"/>
<path d="M888.771 405.38V301.921H925.648C933.697 301.921 940.366 303.386 945.653 306.316C950.941 309.246 954.898 313.254 957.525 318.339C960.152 323.391 961.465 329.082 961.465 335.414C961.465 341.779 960.135 347.504 957.474 352.59C954.847 357.641 950.873 361.649 945.552 364.613C940.265 367.543 933.613 369.008 925.598 369.008H900.238V355.772H924.183C929.269 355.772 933.394 354.897 936.56 353.145C939.726 351.36 942.05 348.936 943.531 345.871C945.013 342.806 945.754 339.321 945.754 335.414C945.754 331.507 945.013 328.038 943.531 325.007C942.05 321.976 939.709 319.602 936.51 317.884C933.344 316.167 929.168 315.308 923.981 315.308H904.381V405.38H888.771Z" fill="#DDB71E"/>
<path d="M823.126 353.651C823.126 364.697 821.105 374.195 817.063 382.143C813.022 390.057 807.482 396.153 800.443 400.43C793.438 404.673 785.473 406.795 776.549 406.795C767.59 406.795 759.592 404.673 752.553 400.43C745.548 396.153 740.025 390.04 735.983 382.092C731.942 374.144 729.921 364.664 729.921 353.651C729.921 342.605 731.942 333.124 735.983 325.21C740.025 317.262 745.548 311.166 752.553 306.923C759.592 302.645 767.59 300.507 776.549 300.507C785.473 300.507 793.438 302.645 800.443 306.923C807.482 311.166 813.022 317.262 817.063 325.21C821.105 333.124 823.126 342.605 823.126 353.651ZM807.667 353.651C807.667 345.231 806.303 338.142 803.575 332.383C800.881 326.591 797.176 322.212 792.462 319.249C787.78 316.251 782.476 314.753 776.549 314.753C770.588 314.753 765.266 316.251 760.585 319.249C755.904 322.212 752.199 326.591 749.471 332.383C746.777 338.142 745.43 345.231 745.43 353.651C745.43 362.071 746.777 369.177 749.471 374.969C752.199 380.728 755.904 385.106 760.585 388.104C765.266 391.067 770.588 392.549 776.549 392.549C782.476 392.549 787.78 391.067 792.462 388.104C797.176 385.106 800.881 380.728 803.575 374.969C806.303 369.177 807.667 362.071 807.667 353.651Z" fill="#DDB71E"/>
<path d="M601.318 301.921H620.262L653.199 382.344H654.412L687.349 301.921H706.293V405.38H691.441V330.514H690.481L659.968 405.229H647.642L617.13 330.463H616.17V405.38H601.318V301.921Z" fill="#DDB71E"/>
<path d="M469.38 301.921H488.324L521.262 382.344H522.474L555.411 301.921H574.355V405.38H559.503V330.514H558.543L528.031 405.229H515.705L485.192 330.463H484.232V405.38H469.38V301.921Z" fill="#DDB71E"/>
<path d="M442.38 301.921V405.38H426.77V301.921H442.38Z" fill="#DDB71E"/>
</svg>
