<?xml version="1.0" encoding="UTF-8"?>
<svg version="1.1" viewBox="0 0 2048 816" width="1984" height="791" xmlns="http://www.w3.org/2000/svg">
<path transform="translate(0)" d="m0 0h2048v816h-2048z" fill="#004F6D"/>
<path transform="translate(381,85)" d="m0 0h183l100 1 16 3 17 7v2l3 1 5 5 8 7 9 12 6 13 4 16 1 14v57l-1 28-3 42v25l-1 26-1 45-1 20-1 57-1 21-1 38v59l-1 57-2 4-2 1 18 2-1 12-4 15-8 16-9 11-10 9-14 8-14 5-5 1h-506l-15-4-15-8-10-8-7-7-9-14-5-11-3-11-2-10-1-1v-264l-1-31v-23l-1-7-1-21v-72l1-12 2-2 1-53 1-6h1l1 124 2 8 2 13 2 19 2 45 4 75 3 52 5 54 1 3 1-2 1-21 1-68 1-26 2 2 2 25 1 5 2 23 2 13 5-8 8-3 5-3 5-8 8-7 4-4 3-7 12-12 1-10h2v-2l3-2v-6l3-7 2-3-1-6-1-4 8-19 6-9 5-10 6-8 7-10 1-2-4 1-1-3 5-10 3-2h9l1-5 9-12 9-14 6-10 6-9 3-4 7-2 8-11 2-4 6-3 22-33 5-5 7-6 11-8 3-3h6l-2 5-3 7-1-3-7 11-5 10-10 15-8 13-9 15-3 7-4 4-1 4-1 3h2l2-5 9-14h2l12-19 13-20 11-17 7-10 14 7 15 10 19 14 14 12 2-1-13-12-16-13-10-7-9-9 1-4 15 1 8-11 8-8 2-9 6-8 7-8 5-6 8-7 8-9 8-6 10-5v3l9-4 7-4 6 1 1 2-4 8 4 2 11 15 11 17 4 4-6-12-8-13-5-11v-5h3v2l7 1 7 5h2l4-8 5-1 1-3 3-7 1-5 1-3-39-4-5-1v-1l19-2 8-1 48-2v-2h-19l-8-2-20-2-35-2-67-5-60-3-27-2-15-2-22-1-73-1-36-1v-1l16-1z" fill="#003E59"/>
<path transform="translate(185,88)" d="m0 0h21l78 1 26 2 21 2 13 1 59 3 79 6 23 1 25 3 9 1 13 1v2l-4 1-44 2-22 3 36 4 3 1v7l-3 4-1 5-2 3-5 1-4 8-5-2-5-3-4-1-4-3 1 7 8 16 7 11 4 8-1 2-8-10-14-21-7-9-2-1 1-4 2-5-6-1-10 6-6 1-1-2-9 5-9 7-7 8-4 2-2 4-4 4h-2l-2 4-7 8-4 6-3 11-5 4h-2l-2 4-6 9-1 1h-7l-8-1 1 4 9 9 10 7 10 8 10 9 8 7-3 2-10-9-20-15-15-10-16-9-4 4-10 16-13 20-11 17-6 9-5 5-8 13-3 1 2-6 2-5 4-4 3-7 9-16 10-15 10-16 6-11 4-4v3l4-9 1-2-7 2-7 6-11 8-4 2-2 4-18 27-6 8-5 1-2 6-9 11-6 1-7 10-6 11-8 11-7 11-5 7-1 4h-9l-4 4-3 7 2 2h2l-2 5-10 14-5 8-6 11-7 15-2 5 1 6 1 4-4 7-1 9-4 2v2h-2l1 6-3 7-8 7-4 5-2 5-10 10h-2l-2 5-5 5-3 1-1 2-7 1-2 4-3 5h-1l-3-23-1-14-2-16-1-14-1 25-1 76-1 12-3 3-2-15-4-43-3-54-2-33-2-40-2-45-3-29-2-5-1-6v-109l2 4 3 5 4 21 2 17 2 10 6 40 3 10h2l1-122 4-13 6-12 5-6 9-7 12-6 7-2 26-1 102-1-1-2-11-2-20-3-35-5-25-5-20-5z" fill="#004F6D"/>
<path transform="translate(700,100)" d="m0 0 5 2 8 6v-3l7 1 11 7 11 9 11 10 6 8 8 16 6 14 5 17 3 21 1 15 1 16v375l-1 22-2 24-6 26-14 28-6 9-8 10-11 11-10 7-21 11-15 5-18 4-26 2h-311l-73 1-45-2-20-3-17-5-20-9-16-10-6-5v-2l-4-2-9-12-8-11-6-12-5-12-7-23v-15l2 1 4 18 5 12 7 12 11 12 13 9 13 6 12 3h506l17-5 13-7 10-8 9-10 8-14 5-15 3-17h-11l-15-1v-1l10-2 1-4 1-66v-50l1-41 1-17 1-57 1-20 1-45 1-27v-24l3-42 1-35v-54l-2-15-5-16-6-11-10-12-9-7z" fill="#003E59"/>
<path transform="translate(355,217)" d="m0 0 14 7 15 10 19 14 14 12 12 11 21 21 9 11 10 12 13 18 13 21 13 24 11 25 11 33 6 24 5 28 3 32v44l-2 23-2 4-9-11-12-14-32-32-11-9-9-8-17-13-18-13-22-14-23-13-19-10-32-14-28-10-26-8-30-7-21-4 1-4 12-19 13-20 11-17 16-25 13-20 11-17 16-25 13-20 11-17z" fill="#FCCA09"/>
<path transform="translate(100,647)" d="m0 0h625l11 1-1 12-4 15-8 16-9 11-10 9-14 8-14 5-5 1h-506l-15-4-15-8-10-8-7-7-9-14-5-11-3-11-1-6z" fill="#FDCB09"/>
<path transform="translate(1308,229)" d="m0 0h44l6 2 11 16 13 18 12 17 13 18 12 17 2 3 8-11 12-19 13-20 11-17 15-23 1-1h39l9 1v219h-53l-1-129-29 43-14 21h-28l-8-10-12-17-13-18-10-14-1 124h-53v-219z" fill="#FBC909"/>
<path transform="translate(856,229)" d="m0 0h45l5 2 12 17 13 18 12 17 13 18 12 17 2 2 22-34 16-25 13-20 7-11 2-1h36l11 1v219h-52l-1-130-29 43-14 21-1 1h-28l-12-16-12-17-13-18-6-8-1 124h-53v-219z" fill="#FBCA09"/>
<path transform="translate(700,100)" d="m0 0 5 2 12 11 9 12 7 15 5 18 1 3h2l6 15 3 12 2 14 2 27v397l-3 31-3 15-5 15-10 17-11 12-9 8-16 9-17 6-30 6-33 4-170 1h-155l-52-1-11-1-12-2-16-4-20-6-16-6-7-5-5-2 3-1 9 2h506l17-5 13-7 10-8 9-10 8-14 5-15 3-17h-11l-15-1v-1l10-2 1-4 1-66v-50l1-41 1-17 1-57 1-20 1-45 1-27v-24l3-42 1-35v-54l-2-15-5-16-6-11-10-12-9-7z" fill="#011E29"/>
<path transform="translate(1632,282)" d="m0 0h24l17 4 12 5 12 8 10 9 8 9 9 15 6 18 2 16-1 17-5 19-9 17-11 13-9 8-15 9-13 5-15 3h-19l-15-3-14-5-15-9-12-11-9-12-8-16-4-13-1-6v-26l4-16 8-17 9-12 9-9 13-9 15-7z" fill="#FCCA09"/>
<path transform="translate(1180,282)" d="m0 0h24l14 3 15 6 11 7 10 9 7 7 9 14 5 11 4 15 1 8v15l-3 16-5 14-7 12-8 10-8 8-10 7-16 8-15 4-6 1h-19l-15-3-13-5-11-6-9-7-6-5-11-14-9-19-4-18v-22l3-14 6-15 9-14 11-12 14-10 15-7z" fill="#FCCA09"/>
<path transform="translate(100,647)" d="m0 0h625l11 1-1 12-4 15-8 16-9 11-10 9-14 8-14 5-5 1h-506l-15-4-15-8-10-8-7-7-9-14-5-11-3-11-1-6zm11 1v1l7 1 4 20 4 11 9 10 9 7 10 4 15 4 23 2h195l192-2h39l35-1 24-3 11-4 9-6v-2l4-2 6-8 4-9 4-17 1-4 7-1v-1z" fill="#D7AB10"/>
<path transform="translate(478,145)" d="m0 0 5 5 10 14 13 21 13 24 12 26 11 29 8 26 6 26 5 30 2 21v59l-1 14-2 3-8-31-10-29-11-26-13-26-13-22-15-22-10-13-9-11-10-11-7-8-14-14-8-7-2-4 10-16 22-34 15-23z" fill="#FBC909"/>
<path transform="translate(371,299)" d="m0 0h16l12 3 12 6 10 9 6 7 6 12 3 11v19l-4 13-6 11-8 9-10 7-11 5-8 2h-20l-15-5-11-7-10-10-6-10-4-12-1-6v-14l3-12 7-14 11-12 11-7 12-4z" fill="#003E59"/>
<path transform="translate(736,155)" d="m0 0 3 4v2h2l6 15 3 12 2 14 2 27v397l-3 31-3 15-5 15-10 17-11 12-9 8-16 9-17 6-30 6-33 4-170 1h-155l-52-1-11-1-12-2-16-4-20-6-16-6-7-5-5-2 3-1 16 4v2l6 1 9 3 33 4 27 2h242l126-1 24-1 31-3 9-2 13-4 9-3v-2l10-5 3-1v-2l5-5 4-2 2-4 6-9 7-15 5-18 1-6 1-21v-415l-1-23-1-11-6-21z" fill="#00293B"/>
<path transform="translate(736,165)" d="m0 0h1l3 20 1 70v383l-1 19-4 18-9 19-7 10-10 9-12 7-6 3-2 2-15 4-24 2-30 1h-392l-35-2-26-4v-1l503-1 17-5 13-7 10-8 9-10 8-14 5-15 2-12v-237z" fill="#020F11"/>
<path transform="translate(167,89)" d="m0 0h18l20 5 32 6 24 3 16 3 16 2 5 3-1 2-102 1-26 1-14 5-9 6-3 3h-2l-2 4-6 9-5 13-1 5-1 122-2 4-4-10-4-22-4-30-2-10-3-20-3-12-3-7 1-20 4-16 7-14 7-9 7-8 12-9 13-6z" fill="#036083"/>
<path transform="translate(100,647)" d="m0 0 1 2h6l1 1 2 13 6 16 5 8 9 10v2l4 2 13 8 8 4 11 4 14 2h23l17 1h63l58-1h37l32-1 103-1 56-1h23l34-1h19l14-1 12-3 13-5 14-8 4-2 2-4 6-7 6-13 5-12 2-10 10-2h3l-1 12-4 15-8 16-9 11-10 9-14 8-14 5-5 1h-506l-15-4-15-8-10-8-7-7-9-14-5-11-3-11-1-6z" fill="#C6990D"/>
<path transform="translate(1640,329)" d="m0 0h8l12 3 11 7 8 10 4 10 1 5v12l-4 12-6 8-9 8-9 4-4 1h-15l-12-4-8-6-7-8-4-8-2-8v-11l4-13 6-8 7-7 10-5z" fill="#004F6D"/>
<path transform="translate(1188,329)" d="m0 0h8l12 3 11 7 7 8 4 8 2 7v15l-4 11-8 11-9 6-11 4h-15l-11-4-9-6-6-7-5-10-2-9 1-13 5-12 9-10 10-6z" fill="#004F6D"/>
<path transform="translate(723,125)" d="m0 0 3 3 6 14 3 15v276l1 7v208h-11l-15-1v-1l10-2 1-4 1-66v-50l1-41 1-17 1-57 1-20 1-45 1-27v-24l3-42 1-35v-54l-2-15-5-16z" fill="#00293A"/>
<path transform="translate(1137,514)" d="m0 0h17l11 15 10 14h2l14-22 5-7h16l1 1v73l-1 1h-17l-1-1v-42l-13 19-2 2h-9l-10-13-4-6-1 40-3 1h-15z" fill="#F9C809"/>
<path transform="translate(1292,514)" d="m0 0h16l8 9 11 14 13 16 1 2 1-41h18v74l-1 1h-14l-8-9-11-14-13-16-2-3-1 41-3 1h-15z" fill="#FAC809"/>
<path transform="translate(1026,533)" d="m0 0 3 1 1 5 8-5 3-1h7l7 3 5 5 4-2 8-5 4-1h7l7 3 5 5 3 8v39l-1 1h-17l-1-35-2-4-6-1-5 3-1 1-1 35-1 1h-17l-1-2v-25l-1-9-3-4-7 1-4 3-1 35-1 1h-16l-1-1v-51l5-2z" fill="#F8C709"/>
<path transform="translate(973,532)" d="m0 0 13 2 8 4 6 5 5 10 1 4v8l-3 9-4 6-8 7-7 3-5 1h-11l-12-4-8-7-5-10-1-9 3-12 7-9 8-5 6-2z" fill="#F9C809"/>
<path transform="translate(1221,514)" d="m0 0h63v18l-22 1-1 55-3 1h-15v-57h-23v-17z" fill="#F8C709"/>
<path transform="translate(878,508)" d="m0 0 17 2 2 1v14l-15-2-6 2-2 4-1 6h19v14h-19v40h-17l-1-1v-58l2-9 4-6 5-4 5-2z" fill="#F9C709"/>
<path transform="translate(913,533)" d="m0 0h3l1 9 9-8 3-1h10l1 1v16l-3 1h-11l-6 4-3 4-1 29-1 1h-16l-1-1v-51l5-2z" fill="#F7C609"/>
<path transform="translate(970,546)" d="m0 0h7l6 3 4 7v13l-4 6-7 3-8-2-5-5-2-5v-10l3-6z" fill="#00506E"/>
<path transform="translate(700,100)" d="m0 0 5 2 12 11 9 12 7 15 3 10 2 18h-1l-1 267-2-2v-276l-3-15-7-16-4-4-6-8-5-6-9-7z" fill="#001E29"/>
<path transform="translate(293,306)" d="m0 0 2 2-1 4-12 19-8 12-4 2-3 3 1-4 6-9 4-7h3l1-4h2v-3h2l1-6z" fill="#004561"/>
<path transform="translate(700,100)" d="m0 0 5 2 12 11 7 9-2 3-7-10-6-7-9-7z" fill="#002534"/>
<path transform="translate(233,411)" d="m0 0 14 2-3 1v2h-13l-2-4z" fill="#004E6B"/>
<path transform="translate(278,328)" d="m0 0h2l-1 4-7 10-4 6-1-3 7-10z" fill="#004F6D"/>
<path transform="translate(352,217)" d="m0 0h2l-2 5-7 11-2 1 2-5z" fill="#00415D"/>
<path transform="translate(407,251)" d="m0 0 10 5 3 4-3 1-10-9z" fill="#004763"/>
</svg>
